<svg width="1435" height="1728" viewBox="0 0 1435 1728" fill="none" xmlns="http://www.w3.org/2000/svg">
<path d="M0 0H1437V1728H0V0Z" fill="#F7F8FA"/>
<g opacity="0.15">
<path d="M1179.19 1150.61L1179.19 1227.02L1246.37 1269.45L1313.55 1227.02L1313.55 1150.61L1246.37 1108.18L1179.19 1150.61Z" stroke="#F56A2B" stroke-width="2"/>
<path d="M938.795 1358.33V1281.92L1005.97 1239.49L1073.15 1281.92V1358.33L1005.97 1400.75L938.795 1358.33Z" stroke="#F56A2B" stroke-width="2"/>
<path d="M859 1494.42V1417.54L927.189 1374.84L995.378 1417.54V1494.42L927.189 1537.12L859 1494.42Z" stroke="#F56A2B" stroke-width="2"/>
<path d="M1175.15 1417.54L1175.15 1494.41L1243.84 1537.12L1312.54 1494.41L1312.54 1417.54L1243.84 1374.83L1175.15 1417.54Z" stroke="#F56A2B" stroke-width="2"/>
<path d="M1097.37 1281.92L1097.37 1358.33L1164.55 1400.75L1231.73 1358.33L1231.73 1281.92L1164.55 1239.49L1097.37 1281.92Z" stroke="#F56A2B" stroke-width="2"/>
<path d="M1018.59 1417.53L1018.59 1494.42L1084.76 1537.11L1150.93 1494.42L1150.93 1417.53L1084.76 1374.85L1018.59 1417.53Z" stroke="#F56A2B" stroke-width="2"/>
</g>
<g opacity="0.15">
<path d="M135.358 694.612L135.358 771.018L68.1791 813.447L1 771.018L1.00001 694.612L68.1791 652.183L135.358 694.612Z" stroke="#F56A2B" stroke-width="2"/>
<path d="M375.752 902.326V825.919L308.573 783.49L241.394 825.919V902.326L308.573 944.755L375.752 902.326Z" stroke="#F56A2B" stroke-width="2"/>
<path d="M455.547 1038.42V961.536L387.358 918.836L319.169 961.536V1038.42L387.358 1081.12L455.547 1038.42Z" stroke="#F56A2B" stroke-width="2"/>
<path d="M139.398 961.538L139.398 1038.41L70.7041 1081.12L2.00998 1038.41L2.00999 961.538L70.7042 918.834L139.398 961.538Z" stroke="#F56A2B" stroke-width="2"/>
<path d="M217.173 825.919L217.173 902.326L149.994 944.755L82.8148 902.326L82.8148 825.919L149.994 783.49L217.173 825.919Z" stroke="#F56A2B" stroke-width="2"/>
<path d="M295.958 961.527L295.958 1038.42L229.789 1081.11L163.62 1038.42L163.62 961.527L229.789 918.846L295.958 961.527Z" stroke="#F56A2B" stroke-width="2"/>
</g>
</svg>
