<svg width="73" height="73" viewBox="0 0 73 73" fill="none" xmlns="http://www.w3.org/2000/svg">
<path d="M53.3462 70.0126V72.8203H19.6538V70.0126C19.6538 68.4656 20.9145 67.2049 22.4615 67.2049H28.1134C28.2622 63.7009 30.5365 60.7753 33.6923 59.655V26.7348C32.2127 25.7999 31.2215 24.1602 31.2215 22.279H33.6923H39.3077H41.7785C41.7785 24.1602 40.7873 25.7999 39.3077 26.7348V59.6522C42.4635 60.7725 44.7378 63.6981 44.8866 67.2021H50.5385C52.0855 67.2049 53.3462 68.4656 53.3462 70.0126ZM73 44.7406C70.942 50.5357 65.4613 54.7163 58.9615 54.7163C52.4617 54.7163 46.9811 50.5328 44.9231 44.7406H48.1632L57.6475 19.6033C58.0575 18.5083 59.8628 18.5083 60.2755 19.6033L69.7599 44.7406H73ZM66.7585 44.7406L58.9615 24.0788L51.1646 44.7434H66.7585V44.7406ZM14.0385 16.6945C15.3103 16.6945 16.3464 15.8438 16.7058 14.6898C17.6351 14.3361 18.5869 13.8588 19.564 13.3646C21.7119 12.2808 24.1462 11.0483 26.6731 11.0483C29.0989 11.0483 30.6151 12.1685 31.4827 13.1232C31.449 13.3646 31.4097 13.6061 31.4097 13.856C31.4097 16.6665 33.6895 18.9463 36.5 18.9463C39.3105 18.9463 41.5903 16.6665 41.5903 13.856C41.5903 13.6061 41.551 13.3674 41.5173 13.126C42.3821 12.1742 43.8983 11.0483 46.3269 11.0483C48.8538 11.0483 51.2881 12.278 53.4332 13.3618C54.4131 13.856 55.3649 14.3333 56.2942 14.687C56.6536 15.841 57.6897 16.6917 58.9615 16.6917C60.5282 16.6917 61.7973 15.4227 61.7973 13.856C61.7973 12.2893 60.5282 11.0202 58.9615 11.0202C58.1529 11.0202 57.4313 11.3683 56.9147 11.913C56.2212 11.621 55.4716 11.2476 54.6995 10.8573C52.2736 9.63038 49.5249 8.24058 46.3269 8.24058C43.5305 8.24058 41.5819 9.30469 40.2595 10.4502C39.6671 9.79604 38.909 9.3075 38.047 9.02954C39.0943 8.468 39.8299 7.39827 39.8299 6.132C39.8299 4.29296 36.5 0 36.5 0C36.5 0 33.1701 4.29296 33.1701 6.132C33.1701 7.40108 33.9057 8.468 34.953 9.02954C34.091 9.30469 33.3329 9.79604 32.7405 10.4502C31.4181 9.30469 29.4695 8.24058 26.6731 8.24058C23.4751 8.24058 20.7236 9.63038 18.2977 10.8573C17.5256 11.2504 16.7788 11.6238 16.0853 11.913C15.5687 11.3712 14.8471 11.0202 14.0385 11.0202C12.4718 11.0202 11.2027 12.2893 11.2027 13.856C11.2027 15.4227 12.4718 16.6945 14.0385 16.6945ZM14.0385 54.7191C7.53865 54.7191 2.05804 50.5357 0 44.7434H3.24008L12.7245 19.6061C13.1344 18.5111 14.9397 18.5111 15.3525 19.6061L24.8368 44.7434H28.0769C26.0189 50.5357 20.5383 54.7191 14.0385 54.7191ZM21.8354 44.7406L14.0385 24.0788L6.2415 44.7434H21.8354V44.7406Z" fill="#EB6320"/>
</svg>
