<svg width="50" height="65" viewBox="0 0 50 65" fill="none" xmlns="http://www.w3.org/2000/svg">
<path d="M48.206 58.6944V57.3075C48.206 56.7173 47.8672 56.1816 47.3357 55.9275C46.9968 55.7649 39.1674 52.1112 26.3562 51.8311V46.6087C27.2676 46.08 27.8852 45.103 27.8852 43.9743V42.2869H38.7302C38.7397 42.2869 38.7534 42.2869 38.7602 42.2869C40.4491 42.2869 41.8182 40.9164 41.8182 39.2289C41.8182 38.9734 41.784 38.7274 41.7253 38.4911C44.3938 37.6097 45.7957 36.8118 45.9201 36.7366C46.3874 36.4633 46.6757 35.9619 46.6757 35.4167V27.0544H48.1254C48.9712 27.0544 49.6544 26.3699 49.6544 25.5254C49.6544 24.681 48.9712 23.9964 48.1254 23.9964H42.1694C41.3249 23.9964 40.6417 24.681 40.6417 25.5254C40.6417 26.3699 41.3249 27.0544 42.1694 27.0544H43.6205V34.4725C42.8717 34.8168 41.5668 35.3538 39.7276 35.8977L38.6919 34.8619C37.9923 34.1623 36.9949 33.8426 36.0179 34.0079C35.9837 34.0134 32.9353 34.5149 27.8865 34.6734V32.0021C33.4532 31.6564 36.2843 30.454 36.6341 30.2955C37.8297 29.7544 38.5457 28.5096 38.4145 27.2034L36.0712 3.92426C35.9591 2.81065 35.2473 1.84599 34.217 1.41148C33.8727 1.26664 30.6945 0 24.8272 0C18.96 0 15.7831 1.26664 15.4401 1.41148C14.4072 1.84599 13.6966 2.80929 13.5846 3.92426L11.2412 27.2088C11.1087 28.5151 11.8261 29.7599 13.023 30.3009C13.3714 30.4581 16.2026 31.6619 21.7692 32.0076V34.6788C16.7204 34.5203 13.6734 34.0216 13.6406 34.0134C12.6568 33.8453 11.6662 34.1651 10.9639 34.8674L9.92952 35.9031C8.08763 35.3593 6.78273 34.8223 6.03669 34.478V27.0612H7.48642C8.33221 27.0612 9.0154 26.3767 9.0154 25.5323C9.0154 24.6878 8.33221 24.0033 7.48642 24.0033H1.52898C0.683192 24.0033 0 24.6878 0 25.5323C0 26.3767 0.683192 27.0612 1.52898 27.0612H2.97872V35.4235C2.97872 35.9646 3.26703 36.4702 3.73433 36.7448C3.86414 36.82 5.27288 37.6275 7.97149 38.5115C7.81982 39.1305 7.84441 39.7932 8.09993 40.4067C8.57406 41.549 9.68903 42.2937 10.9256 42.2937H21.7706V43.9826C21.7706 45.1112 22.3882 46.0854 23.2996 46.6169V51.8393C10.487 52.1166 2.66035 55.7704 2.32012 55.933C1.78996 56.1885 1.4511 56.7255 1.4511 57.313V58.7026C0.586179 59.2246 0.00136629 60.1633 0.00136629 61.2482C0.00136629 62.8933 1.33769 64.2283 2.98008 64.2283C4.62658 64.2283 5.96017 62.8933 5.96017 61.2482C5.96017 60.1633 5.37536 59.2232 4.50907 58.7026V58.3282C6.80596 57.4155 13.5368 55.1172 23.2996 54.8945V58.7026C22.4347 59.2246 21.8499 60.1633 21.8499 61.2482C21.8499 62.8933 23.1862 64.2283 24.8286 64.2283C26.4751 64.2283 27.8087 62.8933 27.8087 61.2482C27.8087 60.1633 27.2238 59.2232 26.3576 58.7026V54.8945C36.0835 55.1199 42.8403 57.4182 45.1481 58.3282V58.7026C44.2818 59.2246 43.697 60.1633 43.697 61.2482C43.697 62.8933 45.0347 64.2283 46.6771 64.2283C48.3222 64.2283 49.6558 62.8933 49.6558 61.2482C49.6544 60.1551 49.0723 59.215 48.206 58.6944ZM19.9437 8.83231C20.0121 8.80362 21.6777 8.11496 24.8272 8.11496C27.9767 8.11496 29.641 8.80362 29.7107 8.83231C30.1001 8.99764 30.2832 9.44582 30.1192 9.83387C29.9949 10.1249 29.7107 10.3012 29.4142 10.3012C29.3144 10.3012 29.2147 10.2807 29.1149 10.2411C29.104 10.2356 27.6338 9.64394 24.8258 9.64394C22.0179 9.64394 20.5477 10.2356 20.5327 10.2424C20.1432 10.405 19.6978 10.2178 19.5352 9.82977C19.374 9.44172 19.5571 8.99491 19.9437 8.83231ZM19.1799 13.4739C19.2592 13.4411 21.1762 12.6486 24.8286 12.6486C28.4809 12.6486 30.398 13.4411 30.4772 13.4739C30.8666 13.6392 31.0497 14.0874 30.8871 14.4755C30.7614 14.7665 30.4772 14.9428 30.1807 14.9428C30.081 14.9428 29.9812 14.9237 29.8828 14.8827C29.8664 14.8772 28.1366 14.1762 24.8286 14.1762C21.5206 14.1762 19.7893 14.8758 19.7716 14.884C19.3822 15.0453 18.9367 14.8608 18.7741 14.4727C18.6115 14.0847 18.7905 13.6379 19.1799 13.4739ZM24.8272 18.7085C21.0191 18.7085 19.0255 19.5161 19.0064 19.5243C18.6143 19.6841 18.1702 19.5038 18.0062 19.1144C17.845 18.7249 18.0267 18.2795 18.4148 18.1155C18.5036 18.0773 20.6748 17.1796 24.8272 17.1796C28.9796 17.1796 31.1508 18.0773 31.2397 18.1155C31.6263 18.2795 31.8081 18.7249 31.6482 19.1144C31.5225 19.4068 31.2397 19.583 30.9404 19.583C30.842 19.583 30.7423 19.5639 30.6453 19.5243C30.6302 19.5174 28.6367 18.7085 24.8272 18.7085Z" fill="#EB6320"/>
</svg>
