<svg width="457" height="432" viewBox="0 0 457 432" fill="none" xmlns="http://www.w3.org/2000/svg">
<path d="M321.42 43.6117L321.42 120.018L388.6 162.447L455.779 120.018L455.779 43.6117L388.6 1.18287L321.42 43.6117Z" stroke="#F56A2B" stroke-width="2"/>
<path d="M81.0261 251.326V174.919L148.205 132.49L215.384 174.919V251.326L148.205 293.755L81.0261 251.326Z" stroke="#F56A2B" stroke-width="2"/>
<path d="M1.23138 387.416V310.536L69.4205 267.836L137.61 310.536V387.416L69.4205 430.116L1.23138 387.416Z" stroke="#F56A2B" stroke-width="2"/>
<path d="M317.38 310.538L317.38 387.414L386.074 430.118L454.769 387.414L454.769 310.538L386.074 267.834L317.38 310.538Z" stroke="#F56A2B" stroke-width="2"/>
<path d="M239.606 174.919L239.606 251.326L306.785 293.755L373.964 251.326L373.964 174.919L306.785 132.49L239.606 174.919Z" stroke="#F56A2B" stroke-width="2"/>
<path d="M160.821 310.527L160.821 387.425L226.99 430.106L293.159 387.425L293.159 310.527L226.99 267.846L160.821 310.527Z" stroke="#F56A2B" stroke-width="2"/>
</svg>
