<svg width="73" height="41" viewBox="0 0 73 41" fill="none" xmlns="http://www.w3.org/2000/svg">
<path d="M15.1035 15.8281C19.2742 15.8281 22.6552 12.447 22.6552 8.27633C22.6552 4.10563 19.2742 0.724609 15.1035 0.724609C10.9328 0.724609 7.55176 4.10563 7.55176 8.27633C7.55176 12.447 10.9328 15.8281 15.1035 15.8281Z" fill="#EB6320"/>
<path d="M15.1035 20.8621C16.2123 20.8621 17.1701 19.7129 17.4936 18.1875L16.3621 18.3448H12.7461C13.1023 19.7922 14.0324 20.8621 15.1035 20.8621Z" fill="#EB6320"/>
<path d="M45.3103 3.02663C45.3103 1.75668 44.2783 0.724609 43.0096 0.724609C42.4042 0.724609 41.8114 0.97004 41.3822 1.39797L30.2157 12.5645C27.4769 15.3032 23.8949 17.1421 20.08 17.8041C19.7906 20.933 17.6836 23.3798 15.1034 23.3798C12.6882 23.3798 10.6693 21.2426 10.1835 18.4032C4.47314 18.9784 0 23.8127 0 29.6729V41.0005H3.77586V25.897H6.2931V41.0005H23.9138V27.3709C23.9138 26.0846 24.4147 24.875 25.3247 23.9638L44.637 4.65276C45.0712 4.21854 45.3103 3.64083 45.3103 3.02663Z" fill="#EB6320"/>
<path d="M65.695 18.3447C62.4112 18.3447 59.5126 20.5574 58.648 23.7266L56.3409 32.1896H42.1638C41.1229 32.1896 40.2759 33.0366 40.2759 34.0775C40.2759 35.1184 41.1229 35.9654 42.1638 35.9654H57.6927C58.7776 35.9654 59.7367 35.2744 60.0803 34.2449L64.2539 21.7229L66.6402 22.5196L62.4666 35.0416C61.7819 37.0994 59.8625 38.4827 57.6927 38.4827H56.6379V40.9999H73V25.6498C73 21.6222 69.7226 18.3447 65.695 18.3447Z" fill="#EB6320"/>
<path d="M61.6725 15.8281C65.8432 15.8281 69.2242 12.447 69.2242 8.27633C69.2242 4.10563 65.8432 0.724609 61.6725 0.724609C57.5017 0.724609 54.1207 4.10563 54.1207 8.27633C54.1207 12.447 57.5017 15.8281 61.6725 15.8281Z" fill="#EB6320"/>
</svg>
