<svg width="457" height="432" viewBox="0 0 457 432" fill="none" xmlns="http://www.w3.org/2000/svg">
<g opacity="0.15">
<path d="M135.358 43.6117L135.358 120.018L68.1791 162.447L1 120.018L1.00001 43.6117L68.1791 1.18287L135.358 43.6117Z" stroke="#F56A2B" stroke-width="2"/>
<path d="M375.752 251.326V174.919L308.573 132.49L241.394 174.919V251.326L308.573 293.755L375.752 251.326Z" stroke="#F56A2B" stroke-width="2"/>
<path d="M455.547 387.416V310.536L387.358 267.836L319.169 310.536V387.416L387.358 430.116L455.547 387.416Z" stroke="#F56A2B" stroke-width="2"/>
<path d="M139.398 310.538L139.398 387.414L70.7041 430.118L2.00998 387.414L2.00999 310.538L70.7042 267.834L139.398 310.538Z" stroke="#F56A2B" stroke-width="2"/>
<path d="M217.173 174.919L217.173 251.326L149.994 293.755L82.8148 251.326L82.8148 174.919L149.994 132.49L217.173 174.919Z" stroke="#F56A2B" stroke-width="2"/>
<path d="M295.958 310.527L295.958 387.425L229.789 430.106L163.62 387.425L163.62 310.527L229.789 267.846L295.958 310.527Z" stroke="#F56A2B" stroke-width="2"/>
</g>
</svg>
